<svg xmlns="http://www.w3.org/2000/svg" xmlns:xlink="http://www.w3.org/1999/xlink" version="1.1" id="Capa_1" x="0px" y="0px" viewBox="0 0 463.6 463.6" style="enable-background:new 0 0 463.6 463.6;" xml:space="preserve">
<polygon style="fill:#00F2A9;" points="103.8,91.8 7.8,187.8 231.8,411.8 455.8,187.8 359.8,91.8 "/>
<g>
	<path style="fill:#322153;" d="M0.6,159c0.8,0.8,0.8,1.6,1.6,2.4l224,224c0,0,0,0,0.8,0c0.8,0.8,0.8,0.8,1.6,1.6h0.8   c0.8,0,1.6,0.8,2.4,0.8s1.6,0,2.4-0.8h0.8c0.8,0,1.6-0.8,1.6-1.6c0,0,0,0,0.8,0l224-224c0.8-0.8,1.6-1.6,1.6-2.4   c0.8-1.6,0.8-4,0-6.4c-0.8-0.8-0.8-1.6-1.6-2.4l-96-96c-1.6-1.6-3.2-2.4-5.6-2.4h-256c-2.4,0-4,0.8-5.6,2.4l-96,96   c-0.8,0.8-1.6,1.6-1.6,2.4C-0.2,155-0.2,156.6,0.6,159z M436.6,147.8h-76.8c-4.8,0-8,3.2-8,8s3.2,8,8,8h76.8L255.8,344.6l80-185.6   l0,0l0,0c0-0.8,0.8-1.6,0.8-2.4l0,0c0,0,0,0,0-0.8s0-1.6-0.8-2.4v-0.8c0-0.8-0.8-1.6-1.6-2.4l0,0L251,67.8h105.6L436.6,147.8z    M107,67.8h121.6l80,80h-12.8c-4.8,0-8,3.2-8,8s3.2,8,8,8h20l-84,196l-84-196h116c4.8,0,8-3.2,8-8s-3.2-8-8-8H155l50.4-50.4   c3.2-3.2,3.2-8,0-11.2s-8-3.2-11.2,0l-64,64l0,0c-0.8,0.8-0.8,1.6-1.6,2.4v0.8c0,0.8,0,1.6-0.8,2.4c0,0,0,0,0,0.8l0,0   c0,0.8,0,1.6,0.8,2.4l0,0l0,0l80,185.6L27,163.8h76.8c4.8,0,8-3.2,8-8s-3.2-8-8-8H27L107,67.8z"/>
	<path style="fill:#322153;" d="M98.2,129.4c1.6,1.6,4,2.4,5.6,2.4c1.6,0,4-0.8,5.6-2.4l32-32c3.2-3.2,3.2-8,0-11.2s-8-3.2-11.2,0   l-32,32C95,121.4,95,126.2,98.2,129.4z"/>
	<path style="fill:#322153;" d="M322.2,97.4l32,32c1.6,1.6,4,2.4,5.6,2.4s4-0.8,5.6-2.4c3.2-3.2,3.2-8,0-11.2l-32-32   c-3.2-3.2-8-3.2-11.2,0S319,94.2,322.2,97.4z"/>
	<path style="fill:#322153;" d="M231.8,243.8c-4.8,0-8,3.2-8,8v32c0,4.8,3.2,8,8,8c4.8,0,8-3.2,8-8v-32   C239.8,247,236.6,243.8,231.8,243.8z"/>
</g>
<g>
</g>
<g>
</g>
<g>
</g>
<g>
</g>
<g>
</g>
<g>
</g>
<g>
</g>
<g>
</g>
<g>
</g>
<g>
</g>
<g>
</g>
<g>
</g>
<g>
</g>
<g>
</g>
<g>
</g>
</svg>